<?xml version="1.0" encoding="UTF-8" standalone="no"?>
<svg
   width="120"
   height="120"
   version="1.1"
   id="svg125"
   sodipodi:docname="red-panda-head-with-headphones_transparent.svg"
   inkscape:version="1.2.2 (b0a8486541, 2022-12-01)"
   xmlns:inkscape="http://www.inkscape.org/namespaces/inkscape"
   xmlns:sodipodi="http://sodipodi.sourceforge.net/DTD/sodipodi-0.dtd"
   xmlns="http://www.w3.org/2000/svg"
   xmlns:svg="http://www.w3.org/2000/svg">
  <sodipodi:namedview
     id="namedview127"
     pagecolor="#ffffff"
     bordercolor="#000000"
     borderopacity="0.25"
     inkscape:showpageshadow="2"
     inkscape:pageopacity="0.0"
     inkscape:pagecheckerboard="0"
     inkscape:deskcolor="#d1d1d1"
     showgrid="false"
     inkscape:zoom="7.0166667"
     inkscape:cx="61.496437"
     inkscape:cy="54.7981"
     inkscape:window-width="1854"
     inkscape:window-height="1011"
     inkscape:window-x="66"
     inkscape:window-y="32"
     inkscape:window-maximized="1"
     inkscape:current-layer="svg125" />
  <path
     fill="#D11C11"
     transform="scale(0.117188 0.117188)"
     d="M0 0L1024 0L1024 1024L0 1024L0 0Z"
     id="path2"
     style="fill:#d11c11;fill-opacity:0" />
  <path
     id="path4"
     d="M 512.68115 77.133004 C 510.10515 77.135804 507.52251 77.175537 504.94785 77.233004 C 408.27894 79.959701 324.36417 114.61995 255.88224 183.26588 C 239.23626 177.01789 207.51517 167.34895 190.59919 167.31595 C 185.90619 167.30595 181.14391 168.12828 176.86591 170.09927 C 167.91292 174.22527 162.46598 181.6992 159.16599 190.79919 C 143.327 234.48814 144.67536 292.64027 152.94935 337.71523 C 154.52835 346.32122 156.03166 355.38079 158.68266 363.73178 C 151.90666 385.94676 148.18937 414.26616 148.54937 437.49813 C 120.81339 451.88812 102.42709 469.69456 92.799604 500.11453 C 91.890672 502.9912 91.120613 505.8985 90.482947 508.84783 C 89.845348 511.79649 89.343753 514.78513 88.982954 517.78112 C 88.622154 520.77645 88.413823 523.78176 88.332956 526.79775 C 88.25209 529.81375 88.299823 532.82038 88.499622 535.83105 C 89.909521 558.07902 97.530363 581.14212 103.99956 602.3641 C 109.87855 621.64908 115.64181 641.82754 125.0828 659.73052 C 136.21479 680.8385 155.28693 698.43066 178.36591 705.36366 C 201.15088 712.20865 218.21333 707.73301 239.38231 698.89702 C 231.44632 735.51098 238.81758 769.32295 258.96556 800.52992 C 261.99289 805.20525 265.24486 809.7272 268.69885 814.09653 C 271.43952 806.64387 274.02149 799.12328 276.44882 791.56329 C 280.29582 799.48528 283.85544 807.5192 288.51544 815.01319 C 303.79142 839.57416 329.30485 865.62693 354.58182 879.96291 C 354.12982 876.59892 353.61816 873.22629 353.31516 869.84629 C 377.82613 889.56727 401.46319 905.09877 431.14816 916.16276 C 442.40415 920.35775 453.94469 923.48738 465.26468 927.42938 C 479.79367 932.49037 493.32051 938.75565 508.4145 942.31265 C 512.57549 943.03165 515.95512 942.49665 519.98111 941.46265 C 532.9301 938.13765 544.71363 932.13204 557.24762 927.74604 C 574.7366 921.62505 592.55508 917.64178 609.56407 909.96278 C 616.23473 906.94345 622.74532 903.62616 629.11398 900.01283 C 635.48264 896.3995 641.68391 892.50687 647.69724 888.32954 C 651.22657 885.84821 654.63386 883.21291 657.93053 880.42958 C 661.22652 877.64625 664.39316 874.72694 667.43049 871.66295 L 667.49715 880.72958 C 692.36513 868.26259 715.46956 844.26114 730.81355 821.16316 C 736.16854 813.10217 740.62583 804.4656 745.19682 795.9466 C 750.72481 801.8286 754.93343 808.81453 760.41342 814.74652 C 765.48642 806.05153 770.69703 797.34263 774.83003 788.14664 C 786.90802 761.27566 788.69231 733.5763 786.06331 704.68033 C 793.70731 705.91833 801.10922 708.30231 808.76322 709.48031 C 830.61019 712.8443 851.97497 707.06269 869.81296 694.11371 C 871.01295 693.25437 872.18894 692.36372 873.34627 691.44705 C 874.50294 690.53038 875.63493 689.58573 876.74626 688.61373 C 877.85692 687.64106 878.95025 686.65507 880.01291 685.63041 C 881.07491 684.60508 882.10157 683.53909 883.1129 682.46375 C 884.12356 681.38776 885.10555 680.30377 886.06289 679.18044 C 887.02022 678.05644 887.96154 676.89912 888.86287 675.73045 C 889.76487 674.56112 890.6362 673.37513 891.47953 672.1638 C 892.32286 670.95247 893.12952 669.71515 893.91285 668.46381 C 910.54484 641.85684 928.00736 577.15397 932.72935 546.281 C 932.86869 545.421 932.99402 544.54501 933.11269 543.68101 C 933.23069 542.81768 933.35002 541.96369 933.44602 541.09769 C 933.54202 540.23103 933.62135 539.3657 933.69602 538.4977 C 933.77068 537.62904 933.82668 536.75105 933.87935 535.88105 C 933.93202 535.01105 933.98201 534.13506 934.01268 533.26439 C 934.04335 532.39373 934.05401 531.5364 934.06268 530.6644 C 934.07201 529.79307 934.07601 528.91908 934.06268 528.04775 C 934.04935 527.17641 934.03068 526.30176 933.99601 525.43109 C 933.96135 524.55976 933.90335 523.68377 933.84602 522.81444 C 933.78935 521.94444 933.72468 521.08245 933.64602 520.21445 C 933.56735 519.34645 933.47935 518.47979 933.37935 517.61446 C 933.27868 516.74846 933.16802 515.87714 933.04602 515.01447 C 932.92402 514.15114 932.79002 513.29048 932.64602 512.43115 C 932.50202 511.57181 932.34469 510.72049 932.17936 509.86449 C 932.01402 509.00849 931.84936 508.14917 931.66269 507.29784 C 931.47603 506.44717 931.27069 505.59451 931.06269 504.74785 C 930.85403 503.90185 930.64136 503.07252 930.4127 502.23119 C 930.1827 501.39052 929.94603 500.5492 929.69603 499.71453 C 929.44537 498.87987 929.18404 498.04321 928.9127 497.21455 C 928.64204 496.38655 928.35471 495.56922 928.06271 494.74789 C 927.77071 493.92722 927.47538 493.1119 927.16271 492.2979 C 926.85004 491.48457 926.51205 490.66991 926.17938 489.86458 C 925.84605 489.05858 925.51539 488.26125 925.16272 487.46459 C 924.80939 486.66792 924.43539 485.86926 924.06272 485.08126 C 923.68939 484.29393 923.3054 483.50927 922.91273 482.73127 C 922.52006 481.95327 922.12473 481.18262 921.71273 480.41462 C 921.30073 479.64662 920.87674 478.88929 920.44607 478.13129 C 920.01474 477.37396 919.57941 476.61064 919.12941 475.86464 C 918.67875 475.11797 918.21475 474.38265 917.74608 473.64798 C 917.27742 472.91331 916.79942 472.18732 916.31276 471.46466 C 915.82542 470.74199 915.3341 470.02533 914.82943 469.31466 C 914.3241 468.60466 913.8021 467.89534 913.27944 467.19801 C 912.22077 465.73601 911.12412 464.31069 909.97945 462.91469 C 908.83545 461.51869 907.6548 460.15737 906.42947 458.83138 C 905.20413 457.50604 903.93215 456.21472 902.62948 454.96473 C 901.32748 453.71473 899.9875 452.50141 898.61283 451.33141 C 897.23883 450.16141 895.83818 449.03475 894.39618 447.94809 C 892.95419 446.86209 891.48353 445.82943 889.97954 444.83144 C 888.47554 443.83344 886.94022 442.87211 885.37956 441.96478 C 883.81889 441.05812 882.22491 440.21012 880.61291 439.39813 C 878.94091 425.17414 877.09393 411.00396 874.21294 396.96497 C 872.62994 389.25198 867.5113 373.91909 867.4963 367.1151 C 867.4803 360.66911 869.49962 353.58418 870.57962 347.21519 C 872.15628 337.33853 873.52627 327.43197 874.69627 317.49865 C 878.75626 281.01068 878.62761 245.4334 870.22962 209.58244 C 867.23662 196.80445 863.80002 182.67892 853.01303 174.11592 C 844.78804 167.58693 833.83181 166.80362 823.77982 168.03262 C 805.31084 170.29161 787.3217 177.43989 769.89672 183.61588 C 758.79673 172.91989 747.57018 162.34267 735.3802 152.88268 C 733.3402 151.31002 731.28622 149.76137 729.21356 148.2327 C 727.14022 146.70404 725.05158 145.18405 722.94692 143.69939 C 720.84225 142.21472 718.73294 140.7554 716.59694 139.31607 C 714.46161 137.87674 712.31297 136.46009 710.14697 135.06609 C 707.98097 133.67209 705.79233 132.29677 703.597 130.94944 C 701.40233 129.60144 699.18702 128.28346 696.96369 126.98279 C 694.74103 125.68213 692.51439 124.40281 690.26372 123.14947 C 688.01372 121.89681 685.73975 120.67149 683.46375 119.46616 C 681.18709 118.26082 678.89844 117.07284 676.59711 115.91617 C 674.29578 114.75951 671.98914 113.64085 669.66381 112.53285 C 667.33848 111.42552 664.99517 110.34087 662.64717 109.28287 C 660.29851 108.22487 657.95053 107.19088 655.58054 106.18288 C 653.20987 105.17488 650.82123 104.19023 648.43057 103.23289 C 646.03924 102.27556 643.64126 101.3389 641.2306 100.4329 C 638.81927 99.526106 636.39329 98.654649 633.96396 97.799583 C 631.53463 96.94445 629.09466 96.102926 626.64733 95.299593 C 624.2 94.496261 621.74402 93.717536 619.28069 92.96627 C 616.81669 92.215004 614.35939 91.498412 611.88072 90.799613 C 609.40139 90.100813 606.90742 89.429021 604.41409 88.782955 C 601.92076 88.136889 599.42078 87.509295 596.91412 86.916296 C 594.40812 86.323296 591.89948 85.755969 589.38082 85.216303 C 586.86215 84.676637 584.34352 84.169109 581.81418 83.682976 C 579.28485 83.196843 576.73621 82.732048 574.19755 82.299649 C 571.65822 81.867316 569.12891 81.461387 566.58092 81.082987 C 564.03359 80.704654 561.46961 80.357258 558.91428 80.032992 C 556.35895 79.708792 553.80898 79.419662 551.24765 79.149662 C 548.68632 78.879729 546.11434 78.631865 543.54768 78.416332 C 540.98102 78.200732 538.41838 78.010668 535.84771 77.849668 C 533.27705 77.688601 530.70441 77.556136 528.13108 77.44967 C 525.55775 77.343203 522.98978 77.268137 520.41445 77.216337 C 517.83912 77.164537 515.25648 77.130204 512.68115 77.133004 z M 500.3812 148.71603 C 512.71719 147.48903 526.29705 148.58736 538.63104 149.64936 C 540.4317 149.79136 542.23368 149.94136 544.03101 150.11603 C 545.82834 150.29069 547.62032 150.49136 549.41432 150.69936 C 551.20765 150.90736 553.00763 151.12469 554.79763 151.36602 C 556.58763 151.60669 558.37961 151.85868 560.16428 152.13268 C 561.94961 152.40668 563.71826 152.70868 565.49759 153.01601 C 567.27759 153.32268 569.05757 153.64334 570.8309 153.98268 C 572.6049 154.32201 574.38088 154.67667 576.14754 155.04934 C 577.91487 155.42134 579.67085 155.81133 581.43085 156.216 C 583.19085 156.62067 584.9455 157.04533 586.6975 157.48266 C 588.45016 157.91933 590.20348 158.36332 591.94747 158.83266 C 593.69081 159.30199 595.42879 159.79798 597.16412 160.29932 C 598.89878 160.80065 600.63876 161.31598 602.3641 161.84931 C 604.08943 162.38264 605.79874 162.93464 607.51407 163.4993 C 609.22941 164.06397 610.94272 164.63596 612.64739 165.23263 C 614.35205 165.82863 616.05403 166.43795 617.74736 167.06595 C 619.4407 167.69395 621.13268 168.34061 622.81401 168.99928 C 624.49534 169.65794 626.16132 170.32594 627.83065 171.01594 C 629.49932 171.70527 631.15797 172.41193 632.81397 173.13259 C 634.46997 173.85259 636.12128 174.59859 637.76395 175.34925 C 639.40661 176.09992 641.05259 176.86791 642.68059 177.64924 C 644.30926 178.42991 645.91724 179.2219 647.53057 180.03257 C 649.14457 180.84323 650.76588 181.65856 652.36388 182.49922 C 653.96255 183.33922 655.54786 184.19588 657.13053 185.06588 C 658.71319 185.93521 660.28051 186.8172 661.84718 187.71587 C 663.41317 188.61453 664.98049 189.53852 666.53049 190.46585 C 668.07982 191.39385 669.61447 192.32718 671.14714 193.28251 C 672.67913 194.23851 674.19912 195.21516 675.71378 196.19916 C 677.22778 197.1825 678.73443 198.17048 680.23043 199.18248 C 681.72643 200.19382 683.21975 201.22647 684.69708 202.2658 C 686.17374 203.30447 687.63906 204.34979 689.09706 205.41579 C 690.55439 206.48179 692.00904 207.57311 693.44704 208.66578 C 694.88504 209.75844 696.29636 210.8631 697.71369 211.98243 C 687.6867 217.58742 677.09381 222.27737 666.96382 227.73236 C 656.14717 233.44036 645.56928 239.54762 635.23062 246.08228 C 624.89197 252.61694 614.82741 259.5602 605.03075 266.88219 C 588.29877 260.9772 572.05962 259.85789 554.49763 260.14889 C 559.82263 256.29389 565.31824 253.12193 571.16423 250.14893 C 558.47124 244.84194 545.81005 242.0633 532.13106 241.0323 C 494.7341 240.16931 457.03914 250.21585 427.94817 274.44883 C 394.52921 247.58186 363.45258 230.38108 324.89861 212.39909 C 337.7206 202.2591 351.76045 193.6972 366.09844 185.89921 C 410.29339 161.86523 450.32825 151.55503 500.3812 148.71603 z "
     transform="scale(0.117188 0.117188)" />
  <path
     fill="#A81F07"
     transform="scale(0.117188 0.117188)"
     d="M735.839 723.703C735.324 722.268 734.98 721.839 735.382 720.336C737.783 720.352 740.386 723.206 742.039 724.862C749.59 732.427 755.15 741.482 759.142 751.364C760.641 755.076 761.758 759.362 763.918 762.728C763.704 765.896 762.728 769.404 761.665 772.39Q760.543 769.085 759.281 765.831C756.736 759.385 741.101 726.012 735.839 723.703Z"
     id="path6" />
  <path
     fill="#1F2020"
     transform="scale(0.117188 0.117188)"
     d="M819.709 604.246C822.78 606.801 826.988 610.769 830.859 611.994C825.153 631.208 817.732 650.98 808.102 668.613C804.011 676.102 799.127 683.1 794.943 690.53C790.483 688.812 785.956 687.212 781.792 684.842C785.536 678.465 790.181 672.607 793.906 666.167C804.954 647.063 813.421 625.354 819.709 604.246Z"
     id="path8" />
  <path
     fill="#FEFEFE"
     transform="scale(0.117188 0.117188)"
     d="M154.135 457.253C154.806 461.376 155.472 465.49 156.338 469.578C156.143 469.699 155.95 469.822 155.754 469.941C151.846 472.295 147.341 473.619 143.368 476.18C130.725 484.328 121.882 499.149 118.074 513.442Q117.386 516.038 116.89 518.678Q116.394 521.317 116.092 523.986Q115.791 526.655 115.686 529.339Q115.581 532.023 115.673 534.707C116.244 551.942 120.991 569.82 125.01 586.547C126.798 593.983 128.381 601.673 130.612 608.978C134.023 621.191 137.631 633.356 142.107 645.227C143.613 649.222 148.048 658.312 147.886 662.045Q147.356 661.041 146.855 660.023C133.399 632.841 124.255 603.056 116.302 573.881C113.126 562.228 109.522 550.299 108.519 538.217C107.524 526.22 108.702 513.934 112.684 502.54C119.909 481.869 134.505 466.635 154.135 457.253Z"
     id="path10" />
  <path
     fill="#FEFEFE"
     transform="scale(0.117188 0.117188)"
     d="M869.108 453.835C890.351 466.15 905.871 482.796 912.257 507.043C915.222 518.304 915.81 530.756 914.609 542.311C911.89 568.479 891.519 635.733 878.163 658.139C876.769 660.478 875.226 662.896 873.431 664.95C875.171 659.693 878.499 654.572 880.592 649.336Q888.067 630.237 893.371 610.425C900.008 591.041 908.319 549.254 907.422 529.007C906.44 506.833 896.895 488.775 880.845 473.836C877.426 470.653 873.267 468.339 869.954 465.118C868.467 463.672 868.929 460.685 868.931 458.727L869.108 453.835Z"
     id="path12" />
  <path
     fill="#1F2020"
     transform="scale(0.117188 0.117188)"
     d="M194.89 561.25C198.632 570.724 201.662 587.127 204.293 597.507C210.354 621.419 223.75 661.289 238.722 680.873C233.35 683.416 227.754 685.373 222.178 687.411C208.823 665.753 199.379 636.965 192.766 612.553C193.678 608.178 193.571 603.54 193.665 599.087L194.22 574.733C194.339 570.301 194.17 565.626 194.89 561.25Z"
     id="path14" />
  <path
     fill="#3B3B3C"
     transform="scale(0.117188 0.117188)"
     d="M159.866 452.161C169.2 447.337 199.32 431.093 208.804 432.944C210.939 435.038 210.377 441.118 210.453 444.14C199.395 450.251 187.5 455.206 176.017 460.496C177.488 471.545 179.811 482.532 181.891 493.483L189.315 532.813C191.179 542.207 194.104 551.704 194.89 561.25C194.17 565.626 194.339 570.301 194.22 574.733L193.665 599.087C193.571 603.54 193.678 608.178 192.766 612.553C184.391 584.303 177.844 555.879 172.011 527.007C167.008 502.244 162.47 477.299 159.866 452.161Z"
     id="path16" />
  <path
     fill="#3B3B3C"
     transform="scale(0.117188 0.117188)"
     d="M823.11 432.869C836.738 438.207 850.734 443.728 863.74 450.431C863.483 474.625 858.814 497.812 853.958 521.421Q844.88 567.338 830.859 611.994C826.988 610.769 822.78 606.801 819.709 604.246C832.936 559.82 843.974 506.391 848.028 460.002C837.337 453.853 825.244 450.448 814.141 445.158C817.854 441.356 820.516 437.498 823.11 432.869Z"
     id="path18" />
  <path
     fill="#AEADAD"
     transform="scale(0.117188 0.117188)"
     d="M212.238 568.642Q217.335 568.512 222.429 568.293C222.148 570.897 224.913 573.65 226.455 575.566C241.729 594.553 253.495 600.663 275.523 609.624C259.311 611.355 246.635 609.141 233.197 599.53C249.263 624.263 274.544 641.707 301.009 653.724Q295.39 654.452 289.81 655.432C313.225 666.66 336.782 674.713 362.237 679.865C365.37 680.499 372.328 682.448 375.348 681.38C375.506 681.324 375.646 681.228 375.795 681.152C378.19 691.828 382.491 701.745 386.805 711.746C347.532 702.903 282.626 679.305 254.629 649.298C266.282 652.305 275.989 651.981 287.743 650.002C284.012 648.787 280.364 647.506 276.819 645.813C261.035 638.275 245.987 625.242 236.239 610.721C232.687 605.429 229.912 599.717 226.529 594.337C220.678 585.033 216.017 579.36 212.238 568.642Z"
     id="path20" />
  <path
     fill="#FEFEFE"
     transform="scale(0.117188 0.117188)"
     d="M750.369 419.647C754.022 415.168 756.966 409.336 759.985 404.368C778.484 373.923 784.184 347.98 784.693 312.491L785.298 312.115C796.504 334.409 806.325 358.302 811.032 382.917C801.347 406.646 782.721 441.279 764.557 459.18Q758.148 439.168 750.369 419.647Z"
     id="path22" />
  <path
     fill="#FEFEFE"
     transform="scale(0.117188 0.117188)"
     d="M239.881 311.043C241.625 314.885 240.653 324.651 240.976 329.293C243.184 361.094 252.378 390.706 274.507 414.427C268.835 428.6 264.801 442.68 261.58 457.59C239.098 439.578 224.209 414.265 214.663 387.389C220.044 360.622 227.923 335.6 239.881 311.043Z"
     id="path24" />
  <path
     fill="#1F2020"
     transform="scale(0.117188 0.117188)"
     d="M184.922 607.568C192.959 635.797 201.83 664.396 216.068 690.2C194.263 691.843 176.454 687.912 159.428 673.312C156 670.372 150.134 665.859 147.886 662.045C148.048 658.312 143.613 649.222 142.107 645.227C137.631 633.356 134.023 621.191 130.612 608.978C133.227 607.884 142.053 611.808 145.253 612.537C158.325 615.514 173.326 614.821 184.922 607.568Z"
     id="path26" />
  <path
     fill="#1F2020"
     transform="scale(0.117188 0.117188)"
     d="M800.876 691.066C818.735 665.805 829.251 636.72 838.146 607.316C844.855 614.503 856.103 618.532 865.792 618.811C872.752 619.012 879.314 616.966 885.383 613.642C887.173 612.662 889.444 610.836 891.341 610.253C892.214 609.985 892.588 610.072 893.371 610.425Q888.067 630.237 880.592 649.336C878.499 654.572 875.171 659.693 873.431 664.95C872.412 669.41 862.409 676.253 858.736 678.909C839.329 692.941 823.919 694.885 800.876 691.066Z"
     id="path28" />
  <path
     fill="#FEFEFE"
     transform="scale(0.117188 0.117188)"
     d="M648.664 308.092C672.051 285.102 710.758 258.84 740.022 243.797Q753.569 259.653 765.313 276.888C750.745 288.469 735.746 299.638 721.937 312.149C712.507 320.693 703.631 330.127 694.797 339.293C679.89 326.732 666.114 316.827 648.664 308.092Z"
     id="path30" />
  <path
     fill="#FEFEFE"
     transform="scale(0.117188 0.117188)"
     d="M256.55 281.354Q262.757 271.649 269.703 262.458Q276.649 253.267 284.292 244.647C316.096 260.226 349.567 282.263 375.287 306.603C356.686 315.999 340.096 326.619 325.276 341.425C309.007 322.368 291.414 305.544 271.006 290.99C266.302 287.635 261.6 284.172 256.55 281.354Z"
     id="path32" />
  <path
     fill="#FEFEFE"
     transform="scale(0.117188 0.117188)"
     d="M777.561 202.247C790.635 197.17 826.813 183.412 839.486 188.825C843.332 190.468 845.491 194.237 846.873 197.996C848.665 202.871 849.847 208.132 851.131 213.168C859.545 246.179 859.781 280.233 855.547 313.913C854.538 321.938 853.591 330.008 851.595 337.858Q847.189 325.443 842.195 313.253C839.856 307.597 836.979 301.868 835.082 296.066C829.882 287.536 825.833 277.778 821.122 268.907Q809.949 248.142 796.62 228.69C793.219 223.623 789.827 218.561 786.153 213.685C783.313 209.915 780.068 206.235 777.561 202.247Z"
     id="path34" />
  <path
     fill="#A96C69"
     transform="scale(0.117188 0.117188)"
     d="M796.62 228.69C803.658 226.453 817.813 221.038 824.71 224.725C827.052 225.976 828.147 229.647 828.762 232.037C834.007 252.443 834.569 275.103 835.082 296.066C829.882 287.536 825.833 277.778 821.122 268.907Q809.949 248.142 796.62 228.69Z"
     id="path36" />
  <path
     fill="#FEFEFE"
     transform="scale(0.117188 0.117188)"
     d="M172.895 338.102C162.247 298.334 163.924 236.174 177.669 197.232C178.95 193.603 180.932 189.887 184.64 188.271C194.368 184.033 239 198.396 250.062 202.524C243.308 210.234 237.04 218.367 230.265 226.026Q222.371 236.1 215.41 246.84Q208.45 257.58 202.479 268.9C198.666 275.985 195.417 283.653 191.383 290.567C189.328 297.634 185.502 304.833 182.739 311.71C179.233 320.436 176.349 329.367 172.895 338.102Z"
     id="path38" />
  <path
     fill="#A96C69"
     transform="scale(0.117188 0.117188)"
     d="M191.383 290.567C190.323 279.757 191.256 259.973 192.356 248.958C193.002 242.485 194.399 224.444 199.714 220.922C204.751 217.583 223.799 225.056 230.265 226.026Q222.371 236.1 215.41 246.84Q208.45 257.58 202.479 268.9C198.666 275.985 195.417 283.653 191.383 290.567Z"
     id="path40" />
  <path
     fill="#AEADAD"
     transform="scale(0.117188 0.117188)"
     d="M630.786 649.288C633.425 666.084 633.449 681.888 623.12 696.225C618.901 702.08 613.288 707.102 607.696 711.608Q605.821 713.111 603.898 714.551Q601.974 715.991 600.004 717.367Q598.034 718.743 596.019 720.052Q594.004 721.362 591.947 722.604Q589.89 723.846 587.793 725.019Q585.696 726.192 583.561 727.295Q581.426 728.398 579.256 729.429Q577.086 730.461 574.882 731.42Q572.679 732.379 570.445 733.265Q568.211 734.15 565.949 734.961Q563.687 735.772 561.4 736.507Q559.112 737.243 556.801 737.902Q554.491 738.561 552.159 739.143Q549.828 739.725 547.479 740.23Q545.129 740.734 542.764 741.161Q540.4 741.587 538.022 741.935C500.152 747.795 453.36 740.306 422.189 717.247C406.832 705.886 396.449 690.852 393.675 671.74Q392.791 665.833 392.983 659.864C397.367 667.723 400.52 675.324 406.762 682.077C427.53 704.543 477.535 716.931 507.406 718.167C542.813 719.632 580.376 710.434 606.884 685.862C614.792 678.531 630.397 660.422 630.786 649.288Z"
     id="path42" />
  <path
     fill="#A96C69"
     transform="scale(0.117188 0.117188)"
     d="M239.881 311.043Q247.677 295.896 256.55 281.354C261.6 284.172 266.302 287.635 271.006 290.99C291.414 305.544 309.007 322.368 325.276 341.425C302.831 362.332 286.461 386.202 274.507 414.427C252.378 390.706 243.184 361.094 240.976 329.293C240.653 324.651 241.625 314.885 239.881 311.043Z"
     id="path44" />
  <path
     fill="#3B3B3C"
     transform="scale(0.117188 0.117188)"
     d="M156.338 469.578C157.112 479.013 158.846 488.43 160.444 497.758Q164.746 523.298 170.44 548.564C174.783 568.272 178.816 588.317 184.922 607.568C173.326 614.821 158.325 615.514 145.253 612.537C142.053 611.808 133.227 607.884 130.612 608.978C128.381 601.673 126.798 593.983 125.01 586.547C120.991 569.82 116.244 551.942 115.673 534.707Q115.581 532.023 115.686 529.339Q115.791 526.655 116.092 523.986Q116.394 521.317 116.89 518.678Q117.386 516.038 118.074 513.442C121.882 499.149 130.725 484.328 143.368 476.18C147.341 473.619 151.846 472.295 155.754 469.941C155.95 469.822 156.143 469.699 156.338 469.578Z"
     id="path46" />
  <path
     fill="#3B3B3C"
     transform="scale(0.117188 0.117188)"
     d="M838.146 607.316C840.085 601.76 841.475 595.867 843.047 590.186Q848.269 571.72 852.566 553.017C857.589 531.369 862.638 509.481 866.011 487.51Q867.365 478.514 868.121 469.448C868.395 466.044 868.302 462.626 868.842 459.251L868.931 458.727C868.929 460.685 868.467 463.672 869.954 465.118C873.267 468.339 877.426 470.653 880.845 473.836C896.895 488.775 906.44 506.833 907.422 529.007C908.319 549.254 900.008 591.041 893.371 610.425C892.588 610.072 892.214 609.985 891.341 610.253C889.444 610.836 887.173 612.662 885.383 613.642C879.314 616.966 872.752 619.012 865.792 618.811C856.103 618.532 844.855 614.503 838.146 607.316Z"
     id="path48" />
  <path
     fill="#A96C69"
     transform="scale(0.117188 0.117188)"
     d="M765.313 276.888C772.378 287.178 780.518 300.626 785.298 312.115L784.693 312.491C784.184 347.98 778.484 373.923 759.985 404.368C756.966 409.336 754.022 415.168 750.369 419.647C740.889 395.193 716.073 355.151 694.797 339.293C703.631 330.127 712.507 320.693 721.937 312.149C735.746 299.638 750.745 288.469 765.313 276.888Z"
     id="path50" />
  <path
     fill="#AEADAD"
     transform="scale(0.117188 0.117188)"
     d="M412.511 739.772C421.845 740.864 432.455 749.859 441.981 753.61C482.604 769.605 532.05 769.981 572.917 754.909C579.041 752.65 585.173 750.222 590.985 747.244C595.893 744.731 600.629 741.659 605.708 739.516L606.58 739.153C609.528 737.907 612.5 737.75 615.654 737.483C615.515 748.078 614.199 758.543 612.414 768.979C611.486 774.404 609.869 780.311 609.59 785.777L609.306 786.436C608.758 786.291 608.663 786.226 608.012 786.28C604.801 786.542 598.794 789.405 595.512 790.512C587.489 793.218 579.31 795.933 571.061 797.853Q563.587 799.582 556.021 800.844Q548.454 802.106 540.824 802.897Q533.194 803.688 525.53 804.005Q517.865 804.322 510.196 804.164Q500.972 803.959 491.782 803.143Q482.592 802.327 473.477 800.903Q464.361 799.479 455.36 797.454Q446.359 795.428 437.512 792.81C434.233 791.807 419.115 786.041 416.895 787.045C416.843 787.068 416.8 787.108 416.752 787.139L416.555 786.609C414.45 771.079 412.627 755.468 412.511 739.772Z"
     id="path52" />
  <path
     fill="#FEFEFE"
     transform="scale(0.117188 0.117188)"
     d="M252.961 523.281C270.552 519.318 286.068 518.165 303.369 524.246C291.51 538.218 284.167 555.31 285.75 573.921Q285.889 575.618 286.113 577.306Q286.337 578.994 286.644 580.669Q286.951 582.344 287.341 584.001Q287.731 585.659 288.203 587.295Q288.675 588.931 289.227 590.542Q289.78 592.152 290.411 593.733Q291.043 595.315 291.753 596.862Q292.462 598.41 293.248 599.921Q294.033 601.432 294.893 602.901Q295.753 604.371 296.684 605.797Q297.616 607.222 298.617 608.599Q299.618 609.977 300.687 611.302Q301.755 612.628 302.888 613.899Q304.021 615.171 305.215 616.384Q306.41 617.597 307.663 618.75Q308.917 619.902 310.226 620.991C324.692 633.16 343.486 640.586 361.818 644.544C366.633 645.583 371.526 646.082 376.323 647.12C374.131 658.674 373.493 669.528 375.795 681.152C375.646 681.228 375.506 681.324 375.348 681.38C372.328 682.448 365.37 680.499 362.237 679.865C336.782 674.713 313.225 666.66 289.81 655.432Q295.39 654.452 301.009 653.724C274.544 641.707 249.263 624.263 233.197 599.53C246.635 609.141 259.311 611.355 275.523 609.624C253.495 600.663 241.729 594.553 226.455 575.566C224.913 573.65 222.148 570.897 222.429 568.293C237.145 565.746 246.287 558.079 256.237 547.486C248.273 549.455 240.227 550.523 232.081 548.948C222.915 547.176 216.093 542.598 210.944 534.856C216.835 533.158 222.561 531.43 228.279 529.2C235.179 530.393 246.353 525.676 252.961 523.281Z"
     id="path54" />
  <path
     fill="#FA703E"
     transform="scale(0.117188 0.117188)"
     d="M166.888 438.905Q166.984 434.563 167.185 430.224Q167.387 425.885 167.694 421.553Q168.001 417.22 168.414 412.896Q168.828 408.573 169.346 404.26Q169.865 399.948 170.488 395.65Q171.112 391.351 171.841 387.069Q172.569 382.787 173.402 378.525Q174.235 374.262 175.171 370.021Q176.108 365.779 177.148 361.562Q178.188 357.345 179.331 353.155Q180.473 348.964 181.718 344.803Q182.962 340.642 184.308 336.512Q185.654 332.383 187.1 328.287Q188.547 324.191 190.093 320.132Q191.638 316.073 193.283 312.053Q194.927 308.033 196.67 304.055Q198.412 300.076 200.251 296.141Q202.089 292.206 204.024 288.317Q205.958 284.428 207.987 280.588Q210.016 276.747 212.138 272.957Q214.259 269.168 216.473 265.431Q218.687 261.694 220.992 258.012Q223.296 254.33 225.69 250.706Q228.083 247.082 230.565 243.517Q233.046 239.952 235.614 236.449Q238.182 232.946 240.834 229.507Q243.487 226.067 246.222 222.693Q248.958 219.32 251.775 216.014Q254.592 212.708 257.49 209.472Q260.387 206.236 263.362 203.072Q266.337 199.908 269.389 196.817Q272.441 193.726 275.567 190.711Q278.601 187.84 281.705 185.044Q284.808 182.247 287.979 179.528Q291.15 176.808 294.386 174.166Q297.622 171.524 300.921 168.962Q304.22 166.4 307.581 163.919Q310.942 161.437 314.362 159.039Q317.782 156.64 321.26 154.326Q324.737 152.011 328.27 149.782Q331.803 147.553 335.389 145.41Q338.976 143.268 342.613 141.213Q346.25 139.158 349.936 137.193Q353.622 135.228 357.355 133.353Q361.088 131.478 364.866 129.694Q368.643 127.911 372.463 126.22Q376.283 124.528 380.143 122.931Q384.003 121.333 387.901 119.83Q391.798 118.327 395.731 116.92Q399.664 115.512 403.63 114.2Q407.597 112.889 411.594 111.674Q415.591 110.46 419.616 109.343Q423.641 108.226 427.693 107.208Q431.744 106.189 435.819 105.269Q439.894 104.35 443.99 103.53Q448.086 102.71 452.201 101.99Q456.316 101.27 460.447 100.65Q464.578 100.03 468.723 99.5116Q472.868 98.9928 477.025 98.575Q481.181 98.1573 485.347 97.8408Q489.512 97.5244 493.684 97.3095Q497.856 97.0946 502.032 96.9814Q506.208 96.8681 510.385 96.8566Q514.563 96.8451 518.739 96.9353C607.818 98.7809 696.14 134.477 758.065 199.219C809.52 253.015 841.263 324.029 854.937 396.652C857.619 410.894 860.321 425.667 861.06 440.166L854.578 437.009C851.92 418.608 849.544 400.284 845.336 382.139Q844.655 379.12 843.922 376.113Q843.189 373.106 842.405 370.113Q841.62 367.119 840.784 364.139Q839.948 361.159 839.061 358.194Q838.174 355.229 837.236 352.28Q836.297 349.331 835.309 346.398Q834.32 343.466 833.28 340.55Q832.241 337.635 831.152 334.739Q830.062 331.842 828.923 328.964Q827.784 326.087 826.596 323.229Q825.407 320.372 824.169 317.535Q822.932 314.698 821.646 311.883Q820.359 309.069 819.024 306.276Q817.69 303.484 816.307 300.715Q814.925 297.946 813.495 295.202Q812.064 292.457 810.587 289.737Q809.11 287.018 807.586 284.324Q806.063 281.63 804.493 278.963Q802.923 276.296 801.307 273.657Q799.691 271.017 798.03 268.406Q796.369 265.794 794.663 263.212Q792.958 260.63 791.208 258.077Q789.458 255.525 787.664 253.003Q785.87 250.481 784.033 247.99Q782.196 245.499 780.317 243.04Q778.437 240.582 776.515 238.156Q774.594 235.73 772.63 233.337Q770.667 230.945 768.663 228.586Q766.659 226.228 764.614 223.905Q762.57 221.581 760.486 219.294Q758.401 217.006 756.278 214.754Q754.155 212.503 751.993 210.288C686.095 143.886 606.945 108.388 513.047 108.004Q508.944 108.001 504.842 108.1Q500.74 108.199 496.642 108.399Q492.544 108.6 488.452 108.901Q484.361 109.203 480.277 109.606Q476.194 110.009 472.122 110.512Q468.05 111.016 463.992 111.62Q459.934 112.225 455.892 112.929Q451.85 113.634 447.826 114.438Q443.803 115.242 439.801 116.146Q435.799 117.05 431.82 118.052Q427.841 119.055 423.889 120.155Q419.936 121.256 416.012 122.454Q412.088 123.652 408.194 124.946Q404.301 126.241 400.441 127.632Q396.581 129.022 392.756 130.508Q388.932 131.994 385.145 133.574Q381.359 135.154 377.612 136.827Q373.866 138.5 370.162 140.265Q366.458 142.03 362.799 143.887Q359.14 145.743 355.528 147.69Q351.916 149.636 348.354 151.671Q344.791 153.706 341.28 155.829Q337.769 157.952 334.311 160.16Q330.853 162.369 327.451 164.663Q324.05 166.957 320.705 169.334Q317.361 171.711 314.077 174.171Q310.793 176.63 307.57 179.17Q304.348 181.709 301.189 184.328Q298.031 186.947 294.938 189.643Q291.845 192.339 288.82 195.111Q285.795 197.882 282.839 200.728Q279.883 203.574 276.999 206.492Q266.418 216.949 256.736 228.243Q247.053 239.537 238.336 251.592C202.232 302.455 175.035 372.042 174.877 435.007C172.214 436.299 169.524 437.557 166.888 438.905Z"
     id="path56" />
  <path
     fill="#FEFEFE"
     transform="scale(0.117188 0.117188)"
     d="M719.576 529.879C735.824 520.494 753.917 520.542 771.869 524.368C778.085 526.003 784.098 528.02 790.144 530.192C796.564 533.102 803.103 535.802 809.482 538.789C801.738 546.847 790.092 551.112 779.003 551.274C776 551.318 773.088 550.873 770.135 550.376C780.775 561.836 794.525 567.468 809.692 570.39L810.414 571.01C809.629 575.687 805.042 582.095 802.705 586.251C787.096 614.003 770.118 633.792 744.234 652.451C751.037 652.283 757.764 651.949 764.546 651.37C730.415 685.217 683.561 703.447 636.634 710.889C642.357 703.951 647.207 695.781 649.436 686.988C650.176 684.069 650.479 681.04 651.286 678.144C652.329 667.576 651.354 657.779 649.692 647.359C650.734 646.293 666.518 643.858 669.502 642.963Q672.996 641.884 676.411 640.577Q679.827 639.269 683.148 637.738Q686.469 636.206 689.681 634.459Q692.893 632.711 695.983 630.754C716.183 617.765 734.538 596.189 739.685 572.27C741.947 561.76 741.512 549.252 735.365 540.046C731.437 534.164 726.339 531.281 719.576 529.879Z"
     id="path58" />
  <path
     fill="#AEADAD"
     transform="scale(0.117188 0.117188)"
     d="M809.692 570.39L810.414 571.01C809.629 575.687 805.042 582.095 802.705 586.251C787.096 614.003 770.118 633.792 744.234 652.451C751.037 652.283 757.764 651.949 764.546 651.37C730.415 685.217 683.561 703.447 636.634 710.889C642.357 703.951 647.207 695.781 649.436 686.988C650.176 684.069 650.479 681.04 651.286 678.144L651.457 679.07C651.852 679.326 651.94 679.423 652.467 679.535C655.708 680.22 661.61 678.729 665.003 678.267C687.553 675.198 726.476 666.341 744.437 652.138C735.32 652.901 726.108 652.534 717.004 651.815C742.026 642.054 769.819 625.471 785.806 603.216C773.033 607.903 758.435 609.738 745.358 605.027C770.058 600.257 791.719 587.799 809.692 570.39Z"
     id="path60" />
  <path
     fill="#FA703E"
     transform="scale(0.117188 0.117188)"
     d="M590.774 306.834C617.318 281.379 646.435 261.441 678.929 244.351C692.46 237.234 706.617 231.116 719.83 223.434L732.82 236.013Q722.054 241.772 711.59 248.061Q701.125 254.351 690.989 261.156Q680.852 267.961 671.068 275.264Q661.284 282.567 651.877 290.35C644.26 296.662 637.322 303.614 629.87 310.068C688.697 335.134 722.094 375.51 745.715 434.047C750.195 445.149 753.49 456.533 756.701 468.053C759.044 476.457 761.022 485.409 764.83 493.285C771.295 506.657 783.014 517.122 790.144 530.192C784.098 528.02 778.085 526.003 771.869 524.368C765.325 515.074 758.273 506.531 753.171 496.263C746.897 483.638 743.984 469.729 739.152 456.547C732.122 437.365 722.93 420.239 712.234 402.857C707.475 395.122 702.715 387.337 696.972 380.279C689.802 371.467 681.238 363.26 672.295 356.241C652.131 340.417 626.762 328.67 602.262 321.552C598.197 320.371 587.239 318.561 584.338 315.955C578.738 310.924 579.493 298.955 579.586 292.027L574.933 291.292L575.33 293.069C574.239 294.347 558.281 301.213 554.222 304.139C543.394 311.946 524.364 334.394 516.223 345.589C514.527 347.922 513.36 350.539 511.732 352.864C511.141 353.708 510.698 354.133 509.685 354.383L508.794 352.367C507.385 355.676 506.066 359.079 504.436 362.283C499.369 354.904 498.35 346.537 499.953 337.848C501.246 330.835 504.287 324.198 507.771 318.021C493.874 326.868 487.458 337.164 483.862 353.193Q483.417 355.19 483.011 357.196C476.486 340.3 479.459 321.377 486.63 305.19C491.492 294.216 498.478 282.355 506.533 273.443C500.059 274.351 493.627 275.245 487.338 277.101C469.878 282.254 453.455 294.201 442.577 308.734C440.619 311.35 438.74 314.601 435.959 316.431C432.405 318.769 415.04 323.136 409.286 325.265C378.178 336.777 349.511 354.781 327.244 379.546Q325.229 381.822 323.284 384.157Q321.339 386.493 319.464 388.885Q317.59 391.278 315.789 393.726Q313.987 396.174 312.26 398.675Q310.532 401.176 308.881 403.728Q307.23 406.279 305.656 408.879Q304.082 411.48 302.586 414.126Q301.091 416.772 299.676 419.462Q298.261 422.152 296.927 424.883Q295.594 427.614 294.343 430.385Q293.092 433.155 291.924 435.961Q290.757 438.767 289.675 441.607Q288.592 444.448 287.596 447.319Q286.599 450.19 285.689 453.09Q284.779 455.99 283.957 458.917Q283.134 461.843 282.4 464.792C278.966 478.116 276.542 493.097 270.354 505.462C265.413 515.335 256.396 517.691 252.961 523.281C246.353 525.676 235.179 530.393 228.279 529.2C239.995 521.179 250.506 512.621 257.75 500.173C268.972 480.889 271.787 457.512 278.24 436.417C295.922 378.612 337.81 330.461 395.146 309.68C384.473 301 374.351 291.684 363.701 283.002C343.693 266.691 316.09 247.273 292.137 237.404C295.695 233.639 299.25 229.826 303.288 226.564C342.275 238.717 399.768 271.889 426.569 303.075C449.75 276.885 484.532 262.797 519.102 260.7C522.342 260.503 525.602 260.534 528.846 260.559C515.545 276.605 504.273 293.73 496.422 313.158C513.784 294.1 536.768 281.171 562.84 279.951Q566.494 279.76 570.151 279.835Q573.809 279.91 577.452 280.252Q581.094 280.594 584.702 281.2Q588.31 281.806 591.864 282.674C590.396 290.96 589.942 298.461 590.774 306.834Z"
     id="path62" />
  <path
     fill="#A81F07"
     transform="scale(0.117188 0.117188)"
     d="M508.794 352.367C516.69 330.844 524.546 308.169 545.699 296.1C554.316 291.184 565.172 288.649 574.933 291.292L575.33 293.069C574.239 294.347 558.281 301.213 554.222 304.139C543.394 311.946 524.364 334.394 516.223 345.589C514.527 347.922 513.36 350.539 511.732 352.864C511.141 353.708 510.698 354.133 509.685 354.383L508.794 352.367Z"
     id="path64" />
  <path
     fill="#A81F07"
     transform="scale(0.117188 0.117188)"
     d="M174.877 435.007C175.035 372.042 202.232 302.455 238.336 251.592Q247.053 239.537 256.736 228.243Q266.418 216.949 276.999 206.492Q279.883 203.574 282.839 200.728Q285.795 197.882 288.82 195.111Q291.845 192.339 294.938 189.643Q298.031 186.947 301.189 184.328Q304.348 181.709 307.57 179.17Q310.793 176.63 314.077 174.171Q317.361 171.711 320.705 169.334Q324.05 166.957 327.451 164.663Q330.853 162.369 334.311 160.16Q337.769 157.952 341.28 155.829Q344.791 153.706 348.354 151.671Q351.916 149.636 355.528 147.69Q359.14 145.743 362.799 143.887Q366.458 142.03 370.162 140.265Q373.866 138.5 377.612 136.827Q381.359 135.154 385.145 133.574Q388.932 131.994 392.756 130.508Q396.581 129.022 400.441 127.632Q404.301 126.241 408.194 124.946Q412.088 123.652 416.012 122.454Q419.936 121.256 423.889 120.155Q427.841 119.055 431.82 118.052Q435.799 117.05 439.801 116.146Q443.803 115.242 447.826 114.438Q451.85 113.634 455.892 112.929Q459.934 112.225 463.992 111.62Q468.05 111.016 472.122 110.512Q476.194 110.009 480.277 109.606Q484.361 109.203 488.452 108.901Q492.544 108.6 496.642 108.399Q500.74 108.199 504.842 108.1Q508.944 108.001 513.047 108.004C606.945 108.388 686.095 143.886 751.993 210.288Q754.155 212.503 756.278 214.754Q758.401 217.006 760.486 219.294Q762.57 221.581 764.614 223.905Q766.659 226.228 768.663 228.586Q770.667 230.945 772.63 233.337Q774.594 235.73 776.515 238.156Q778.437 240.582 780.317 243.04Q782.196 245.499 784.033 247.99Q785.87 250.481 787.664 253.003Q789.457 255.525 791.207 258.077Q792.958 260.63 794.663 263.212Q796.369 265.794 798.03 268.406Q799.691 271.017 801.307 273.657Q802.922 276.296 804.492 278.963Q806.062 281.63 807.586 284.324Q809.11 287.018 810.587 289.737Q812.064 292.457 813.495 295.202Q814.925 297.946 816.307 300.715Q817.69 303.484 819.024 306.276Q820.359 309.069 821.645 311.883Q822.932 314.698 824.169 317.535Q825.407 320.372 826.596 323.229Q827.784 326.087 828.923 328.964Q830.062 331.842 831.152 334.739Q832.241 337.635 833.28 340.55Q834.32 343.466 835.309 346.398Q836.297 349.331 837.236 352.28Q838.174 355.229 839.061 358.194Q839.948 361.159 840.784 364.139Q841.62 367.119 842.405 370.113Q843.189 373.106 843.922 376.113Q844.655 379.12 845.336 382.139C849.544 400.284 851.92 418.608 854.578 437.009C846.496 433.071 838.032 429.893 829.658 426.644C828.493 421.937 828.06 416.89 827.318 412.092Q825.5 399.657 822.623 387.424C808.027 326.98 782.687 275.279 740.379 229.396Q737.82 226.585 735.192 223.84Q732.563 221.094 729.867 218.415Q727.171 215.736 724.409 213.125Q721.646 210.514 718.82 207.972Q715.993 205.431 713.104 202.962Q710.214 200.492 707.264 198.095Q704.314 195.699 701.305 193.377Q698.296 191.054 695.229 188.808Q692.163 186.562 689.042 184.393Q685.92 182.224 682.746 180.134Q679.571 178.044 676.345 176.034Q673.119 174.023 669.844 172.094Q666.569 170.165 663.247 168.319Q659.924 166.473 656.557 164.71Q653.189 162.947 649.779 161.269Q646.368 159.591 642.917 157.998Q639.466 156.406 635.976 154.9Q632.485 153.395 628.959 151.977Q625.432 150.559 621.871 149.23Q618.31 147.9 614.717 146.66Q611.124 145.421 607.501 144.271Q603.878 143.121 600.228 142.063Q596.577 141.004 592.901 140.037Q589.225 139.069 585.527 138.194Q581.828 137.319 578.108 136.537Q574.388 135.755 570.65 135.066Q566.912 134.377 563.158 133.781Q559.404 133.186 555.637 132.685Q551.869 132.183 548.09 131.776Q544.311 131.369 540.523 131.057Q536.734 130.744 532.94 130.526Q529.145 130.309 525.346 130.186Q521.51 130.015 517.671 129.938Q513.832 129.862 509.992 129.88Q506.152 129.897 502.314 130.01Q498.475 130.122 494.641 130.329Q490.807 130.536 486.978 130.837Q483.15 131.138 479.331 131.533Q475.511 131.928 471.703 132.417Q467.894 132.906 464.098 133.488Q460.303 134.071 456.523 134.747Q452.743 135.422 448.981 136.191Q445.218 136.96 441.476 137.82Q437.734 138.681 434.014 139.634Q430.294 140.587 426.599 141.631Q422.904 142.675 419.235 143.809Q415.567 144.944 411.927 146.168Q408.288 147.392 404.68 148.706Q401.071 150.02 397.496 151.422Q393.922 152.824 390.382 154.313Q386.843 155.803 383.342 157.379Q379.84 158.955 376.378 160.617Q372.917 162.279 369.497 164.025Q366.077 165.772 362.701 167.602Q359.326 169.432 355.996 171.344Q352.666 173.257 349.384 175.251Q346.103 177.245 342.871 179.319Q339.64 181.393 336.46 183.546Q333.28 185.699 330.155 187.93Q327.029 190.16 323.959 192.467Q320.89 194.774 317.877 197.155Q314.865 199.537 311.913 201.992Q308.96 204.447 306.069 206.974Q303.177 209.501 300.349 212.098Q297.579 214.636 294.872 217.24Q292.165 219.845 289.523 222.515Q286.88 225.185 284.304 227.919Q281.728 230.653 279.219 233.449Q276.71 236.245 274.27 239.101Q271.831 241.958 269.461 244.873Q267.092 247.788 264.795 250.761Q262.498 253.733 260.274 256.761Q258.05 259.788 255.901 262.869Q253.751 265.95 251.678 269.083Q249.605 272.215 247.609 275.398Q245.612 278.58 243.695 281.81Q241.777 285.04 239.939 288.316Q238.1 291.592 236.343 294.912Q234.585 298.232 232.909 301.594Q231.233 304.956 229.64 308.358Q228.047 311.76 226.537 315.2Q225.027 318.64 223.602 322.116Q222.177 325.591 220.837 329.101Q219.497 332.61 218.244 336.152Q216.99 339.693 215.823 343.264Q214.657 346.834 213.578 350.433Q212.499 354.031 211.508 357.655Q210.517 361.278 209.615 364.925Q208.713 368.571 207.9 372.239Q207.088 375.907 206.365 379.593Q205.642 383.279 205.01 386.982Q204.378 390.685 203.836 394.403Q203.294 398.12 202.844 401.849Q202.393 405.579 202.033 409.318Q201.674 413.057 201.406 416.805Q201.138 420.552 200.962 424.304Q187.81 429.389 174.877 435.007Z"
     id="path66" />
  <path
     fill="#d11c11"
     d="m 500.373,148.718 c 12.336,-1.227 25.93,-0.134 38.264,0.928 q 2.701,0.213 5.397,0.475 2.696,0.262 5.387,0.574 2.69,0.312 5.375,0.674 2.685,0.361 5.362,0.772 2.678,0.411 5.347,0.872 2.67,0.46 5.33,0.969 2.661,0.509 5.311,1.068 2.651,0.558 5.291,1.165 2.64,0.607 5.268,1.263 2.629,0.655 5.245,1.359 2.615,0.704 5.218,1.456 2.602,0.752 5.19,1.552 2.588,0.8 5.161,1.647 2.573,0.847 5.13,1.742 2.557,0.894 5.097,1.836 2.54,0.942 5.062,1.93 2.522,0.988 5.026,2.023 2.503,1.034 4.987,2.115 2.484,1.08 4.948,2.206 2.464,1.126 4.906,2.298 2.443,1.171 4.863,2.387 2.421,1.216 4.818,2.477 2.398,1.26 4.772,2.565 2.374,1.304 4.724,2.652 2.349,1.348 4.674,2.739 2.324,1.392 4.623,2.825 2.298,1.434 4.57,2.91 2.271,1.475 4.515,2.993 2.244,1.517 4.46,3.076 2.215,1.558 4.402,3.157 2.186,1.599 4.343,3.238 2.157,1.639 4.283,3.318 c -10.027,5.605 -20.632,10.292 -30.762,15.747 q -16.225,8.562 -31.733,18.364 -15.508,9.802 -30.203,20.785 c -16.732,-5.905 -32.963,-7.023 -50.525,-6.732 5.325,-3.855 10.812,-7.018 16.658,-9.991 -12.693,-5.307 -25.347,-8.084 -39.026,-9.115 -37.397,-0.863 -75.091,9.173 -104.182,33.406 -33.419,-26.867 -64.497,-44.055 -103.051,-62.037 12.822,-10.14 26.861,-18.712 41.199,-26.51 44.195,-24.034 84.223,-34.339 134.276,-37.178 z"
     id="path6972"
     transform="scale(0.117188)"
     style="display:none" />
  <path
     fill="#FEFEFE"
     transform="scale(0.117188 0.117188)"
     d="M465.031 559.566C494.599 546.738 518.915 543.57 549.789 555.806Q555.761 558.207 561.538 561.046C591.308 578.606 620.127 607.303 629.036 641.527C629.704 644.091 630.244 646.694 630.786 649.288C630.397 660.422 614.792 678.531 606.884 685.862C580.376 710.434 542.813 719.632 507.406 718.167C477.535 716.931 427.53 704.543 406.762 682.077C400.52 675.324 397.367 667.723 392.983 659.864C392.67 652.751 394.42 645.058 396.454 638.285C406.325 605.416 434.979 575.646 465.031 559.566Z"
     id="path70" />
  <path
     transform="scale(0.117188 0.117188)"
     d="M508.314 572.711C517.799 571.973 528.06 573.164 537.096 576.15C546.619 579.297 557.204 584.837 561.707 594.323C564.901 601.05 564.777 608.971 562.114 615.845C554.686 635.015 535.055 642.374 517.779 650.144C517.528 654.899 517.447 659.577 517.537 664.338C519.79 666.886 522.637 668.882 525.521 670.66C537.837 678.256 552.186 680.18 566.188 676.84C581.657 673.151 593.521 663.402 601.676 649.989C600.5 655.625 598.94 660.827 595.912 665.779C589.161 676.821 576.922 683.659 564.554 686.491C548.971 690.06 530.16 688.062 516.461 679.532C515.542 678.861 514.601 678.277 513.633 677.681C510.699 677.71 500.929 683.97 496.457 685.194C479.875 689.729 459.754 689.404 444.541 680.702C432.067 673.566 426.787 662.55 423.165 649.135Q425.298 652.827 427.893 656.21Q430.488 659.593 433.5 662.611C443.574 672.552 457.932 678.559 472.113 678.324C484.549 678.117 498.186 673.171 506.972 664.199C507.248 659.496 507.012 654.72 506.945 650.01C496.426 645.56 485.361 641.347 476.48 633.989C468.433 627.324 462.404 617.578 461.467 607.031C460.837 599.939 462.976 593.261 467.618 587.864C477.311 576.595 494.344 573.822 508.314 572.711Z"
     id="path72" />
  <path
     fill="#FEFEFE"
     transform="scale(0.117188 0.117188)"
     d="M494.159 583.625C497.782 583.544 502.424 583.347 505.591 585.318C506.915 586.142 507.912 587.358 508.161 588.94C508.418 590.572 507.843 592.173 506.915 593.494C503.909 597.774 498.415 599.045 493.591 599.978C489.924 600.457 484.937 600.929 481.535 599.278C480.181 598.62 478.966 597.516 478.614 595.997C478.179 594.122 478.914 592.309 480.01 590.819C483.266 586.395 488.994 584.58 494.159 583.625Z"
     id="path74" />
  <path
     fill="#D11C11"
     transform="scale(0.117188 0.117188)"
     d="M266.962 676.357C269.156 677.947 271.112 679.76 273.104 681.588C313.218 711.076 362.879 733.317 412.511 739.772C412.627 755.468 414.45 771.079 416.555 786.609L416.752 787.139C416.8 787.108 416.843 787.068 416.895 787.045C419.115 786.041 434.233 791.807 437.512 792.81Q446.359 795.428 455.36 797.454Q464.361 799.479 473.477 800.903Q482.592 802.327 491.782 803.143Q500.972 803.959 510.196 804.164Q517.865 804.322 525.53 804.005Q533.194 803.688 540.824 802.897Q548.454 802.106 556.021 800.844Q563.587 799.582 571.061 797.853C579.31 795.933 587.489 793.218 595.512 790.512C598.794 789.405 604.801 786.542 608.012 786.28C608.663 786.226 608.758 786.291 609.306 786.436L609.59 785.777C609.869 780.311 611.486 774.404 612.414 768.979C614.199 758.543 615.515 748.078 615.654 737.483C625.025 736.33 634.19 735.384 643.424 733.307C681.165 724.821 730.432 702.989 758.833 676.395C763.168 691.174 766.019 707.295 766.03 722.723C766.78 735.859 766.955 749.85 763.918 762.728C761.758 759.362 760.641 755.076 759.142 751.364C755.15 741.482 749.59 732.427 742.039 724.862C740.386 723.206 737.783 720.352 735.382 720.336C734.98 721.839 735.324 722.268 735.839 723.703C742.446 756.272 733.438 782.345 715.614 809.293C709.784 818.107 703.14 827.55 695.69 835.053C691.606 839.878 686.88 844.121 682.277 848.441C683.252 838.889 684.211 829.361 684.305 819.752C664.378 854.863 629.247 883.216 590.816 895.399C596.742 883.872 601.642 872.576 604.811 859.936C601.503 865.255 598.166 870.488 594.115 875.288C578.492 893.804 555.421 908.367 532.895 916.773C530.095 918.27 526.924 919.493 523.962 920.656C510.871 925.797 502.331 921.581 490.158 916.286C471.605 910.175 446.552 894.777 433.537 880.418C429.718 876.204 427.019 871.542 424.039 866.752C426.609 877.129 430.732 887.08 434.631 897.011C395.402 880.641 361.721 858.037 337.442 822.647C338.583 831.037 339.993 839.334 342.006 847.563C338.834 844.603 335.738 841.605 332.729 838.48C327.329 833.409 322.446 827.683 317.752 821.96C298.605 798.613 289.759 776.309 287.957 746.02C287.1 741.368 287.435 736.355 287.452 731.629C275.562 744.567 268.96 756.255 265.1 773.537C263.564 770.296 262.174 767.045 261.261 763.565C250.974 730.776 255.635 707.667 266.962 676.357Z"
     id="path76" />
  <path
     fill="#A81F07"
     transform="scale(0.117188 0.117188)"
     d="M261.261 763.565C263.107 760.906 263.465 754.99 264.326 751.715C268.127 737.25 278.301 726.403 289.134 716.736C287.892 726.536 288.074 736.176 287.957 746.02C287.1 741.368 287.435 736.355 287.452 731.629C275.562 744.567 268.96 756.255 265.1 773.537C263.564 770.296 262.174 767.045 261.261 763.565Z"
     id="path78" />
  <path
     fill="#A81F07"
     transform="scale(0.117188 0.117188)"
     d="M695.924 765.261Q696.142 787.624 695.921 809.986C695.796 818.075 694.628 827.055 695.69 835.053C691.606 839.878 686.88 844.121 682.277 848.441C683.252 838.889 684.211 829.361 684.305 819.752C664.378 854.863 629.247 883.216 590.816 895.399C596.742 883.872 601.642 872.576 604.811 859.936C601.503 865.255 598.166 870.488 594.115 875.288C578.492 893.804 555.421 908.367 532.895 916.773C533.397 915.915 533.728 915.3 534.531 914.677C537.432 912.429 541.547 910.73 544.745 908.735C550.436 905.186 555.913 900.997 561.143 896.801C580.672 881.128 594.331 867.338 609.883 847.9C610.198 859.227 608.767 869.525 606.708 880.618C639.113 859.174 666.845 830.632 683.888 795.374C688.596 785.633 692.1 775.367 695.924 765.261Z"
     id="path80" />
  <path
     fill="#A81F07"
     transform="scale(0.117188 0.117188)"
     d="M332.729 838.48C332.707 838.341 332.686 838.202 332.662 838.064C331.879 833.586 329.942 829.391 329.215 824.892C326.419 807.594 328.946 789.731 332.823 772.787Q333.461 774.803 334.142 776.805Q334.823 778.807 335.547 780.793Q336.271 782.78 337.037 784.751Q337.803 786.721 338.612 788.675Q339.42 790.629 340.27 792.565Q341.12 794.501 342.012 796.419Q342.903 798.336 343.835 800.234Q344.768 802.132 345.741 804.009Q346.714 805.886 347.726 807.742Q348.739 809.599 349.792 811.432Q350.844 813.266 351.936 815.077Q353.028 816.888 354.158 818.675Q355.288 820.462 356.456 822.225Q357.625 823.987 358.831 825.724Q360.036 827.461 361.279 829.172Q362.522 830.882 363.801 832.566Q365.08 834.25 366.395 835.906Q367.71 837.561 369.061 839.189Q370.411 840.816 371.796 842.414Q373.181 844.011 374.6 845.579Q376.018 847.147 377.471 848.684Q378.923 850.221 380.407 851.727Q381.892 853.232 383.409 854.705Q384.926 856.178 386.474 857.619Q388.022 859.059 389.6 860.466Q391.179 861.873 392.787 863.246Q394.395 864.618 396.033 865.956Q397.67 867.294 399.336 868.596Q401.002 869.899 402.695 871.165Q404.388 872.432 406.109 873.661Q407.829 874.891 409.575 876.084Q411.321 877.276 413.092 878.431C410.151 864.15 408.81 851.436 412.293 837.028C423.649 858.749 434.117 871.138 452.277 887.26C459.736 893.881 468.065 900.169 476.29 905.824C480.264 908.556 484.833 910.957 488.565 913.951C489.456 914.665 489.798 915.223 490.158 916.286C471.605 910.175 446.552 894.777 433.537 880.418C429.718 876.204 427.019 871.542 424.039 866.752C426.609 877.129 430.732 887.08 434.631 897.011C395.402 880.641 361.721 858.037 337.442 822.647C338.583 831.037 339.993 839.334 342.006 847.563C338.834 844.603 335.738 841.605 332.729 838.48Z"
     id="path82" />
  <path
     fill="#A81F07"
     transform="scale(0.117188 0.117188)"
     d="M273.104 681.588C313.218 711.076 362.879 733.317 412.511 739.772C412.627 755.468 414.45 771.079 416.555 786.609C412.595 784.001 406.017 782.755 401.499 780.991C395.948 778.823 390.488 776.175 385.139 773.547C355.767 759.117 328.92 739.482 304.871 717.359C298.4 711.407 273.409 689.063 273.104 681.588Z"
     id="path84" />
  <path
     fill="#A81F07"
     transform="scale(0.117188 0.117188)"
     d="M615.654 737.483C625.025 736.33 634.19 735.384 643.424 733.307C681.165 724.821 730.432 702.989 758.833 676.395C763.168 691.174 766.019 707.295 766.03 722.723C761.841 713.62 761.482 702.155 756.65 692.224C728.384 716.79 696.667 736.902 664.803 756.369C647.373 767.019 629.933 778.518 610.532 785.327C609.942 785.534 610.182 785.434 609.59 785.777C609.869 780.311 611.486 774.404 612.414 768.979C614.199 758.543 615.515 748.078 615.654 737.483Z"
     id="path86" />
  <path
     fill="#FEFEFE"
     transform="scale(0.117188 0.117188)"
     d="M416.752 787.139C416.8 787.108 416.843 787.068 416.895 787.045C419.115 786.041 434.233 791.807 437.512 792.81Q446.359 795.428 455.36 797.454Q464.361 799.479 473.477 800.903Q482.592 802.327 491.782 803.143Q500.972 803.959 510.196 804.164Q517.865 804.322 525.53 804.005Q533.194 803.688 540.824 802.897Q548.454 802.106 556.021 800.844Q563.587 799.582 571.061 797.853C579.31 795.933 587.489 793.218 595.512 790.512C598.794 789.405 604.801 786.542 608.012 786.28C608.663 786.226 608.758 786.291 609.306 786.436C597.159 840.809 566.505 884.008 519.412 913.879L513.88 917.371C473.198 899.079 441.698 860.645 426.024 819.336C422.213 809.295 418.525 797.745 416.752 787.139Z"
     id="path88" />
  <path
     fill="#D11C11"
     transform="scale(0.117188 0.117188)"
     d="M252.961 523.281C256.396 517.691 265.413 515.335 270.354 505.462C276.542 493.097 278.966 478.116 282.4 464.792Q283.134 461.843 283.957 458.917Q284.779 455.99 285.689 453.09Q286.599 450.19 287.596 447.319Q288.592 444.448 289.675 441.607Q290.757 438.767 291.924 435.961Q293.092 433.155 294.343 430.385Q295.594 427.614 296.927 424.883Q298.261 422.152 299.676 419.462Q301.091 416.772 302.586 414.126Q304.082 411.48 305.656 408.879Q307.23 406.279 308.881 403.728Q310.532 401.176 312.26 398.675Q313.987 396.174 315.789 393.726Q317.59 391.278 319.464 388.885Q321.339 386.493 323.284 384.157Q325.229 381.822 327.244 379.546C349.511 354.781 378.178 336.777 409.286 325.265C415.04 323.136 432.405 318.769 435.959 316.431C438.74 314.601 440.619 311.35 442.577 308.734C453.455 294.201 469.878 282.254 487.338 277.101C493.627 275.245 500.059 274.351 506.533 273.443C498.478 282.355 491.492 294.216 486.63 305.19C479.459 321.377 476.486 340.3 483.011 357.196Q483.417 355.19 483.862 353.193C487.458 337.164 493.874 326.868 507.771 318.021C504.287 324.198 501.246 330.835 499.953 337.848C498.35 346.537 499.369 354.904 504.436 362.283C506.066 359.079 507.385 355.676 508.794 352.367L509.685 354.383C510.698 354.133 511.141 353.708 511.732 352.864C513.36 350.539 514.527 347.922 516.223 345.589C524.364 334.394 543.394 311.946 554.222 304.139C558.281 301.213 574.239 294.347 575.33 293.069L574.933 291.292L579.586 292.027C579.493 298.955 578.738 310.924 584.338 315.955C587.239 318.561 598.197 320.371 602.262 321.552C626.762 328.67 652.131 340.417 672.295 356.241C681.238 363.26 689.802 371.467 696.972 380.279C702.715 387.337 707.475 395.122 712.234 402.857C722.93 420.239 732.122 437.365 739.152 456.547C743.984 469.729 746.897 483.638 753.171 496.263C758.273 506.531 765.325 515.074 771.869 524.368C753.917 520.542 735.824 520.494 719.576 529.879C726.339 531.281 731.437 534.164 735.365 540.046C741.512 549.252 741.947 561.76 739.685 572.27C734.538 596.189 716.183 617.765 695.983 630.754Q692.893 632.711 689.681 634.459Q686.469 636.206 683.148 637.738Q679.827 639.269 676.411 640.577Q672.996 641.884 669.502 642.963C666.518 643.858 650.734 646.293 649.692 647.359C646.097 632.448 638.971 619.115 629.443 607.121C615.253 589.259 595.091 574.248 574.075 565.241C570.219 563.589 565.726 561.518 561.538 561.046Q555.761 558.207 549.789 555.806C518.915 543.57 494.599 546.738 465.031 559.566C452.629 559.211 417.416 584.952 408.017 593.771C393.109 607.757 380.559 626.911 376.323 647.12C371.526 646.082 366.633 645.583 361.818 644.544C343.486 640.586 324.692 633.16 310.226 620.991Q308.917 619.902 307.663 618.75Q306.41 617.597 305.215 616.384Q304.021 615.171 302.888 613.899Q301.755 612.628 300.687 611.302Q299.618 609.977 298.617 608.599Q297.616 607.222 296.684 605.797Q295.753 604.371 294.893 602.901Q294.033 601.432 293.248 599.921Q292.462 598.41 291.753 596.862Q291.043 595.315 290.411 593.733Q289.78 592.152 289.227 590.542Q288.675 588.931 288.203 587.295Q287.731 585.659 287.341 584.001Q286.951 582.344 286.644 580.669Q286.337 578.994 286.113 577.306Q285.889 575.618 285.75 573.921C284.167 555.31 291.51 538.218 303.369 524.246C286.068 518.165 270.552 519.318 252.961 523.281Z"
     id="path90" />
  <path
     fill="#A81F07"
     transform="scale(0.117188 0.117188)"
     d="M597.884 567.855C597.26 568.23 596.861 568.346 596.115 568.39C591.907 568.637 586.924 565.244 583.853 562.577C574.473 554.428 570.357 541.488 569.64 529.423Q569.544 527.775 569.53 526.125Q569.516 524.475 569.583 522.826Q569.651 521.177 569.8 519.533Q569.949 517.889 570.179 516.255Q570.409 514.621 570.719 513Q571.03 511.379 571.42 509.775Q571.81 508.172 572.279 506.589Q572.749 505.007 573.295 503.45Q573.842 501.892 574.465 500.364Q575.089 498.836 575.786 497.34Q576.484 495.845 577.255 494.386Q578.026 492.926 578.869 491.507Q579.711 490.088 580.622 488.712Q581.534 487.336 582.512 486.007Q583.49 484.677 584.533 483.398Q585.576 482.119 586.681 480.893C598.177 468.154 613.806 460.201 631.023 459.425C648.104 458.655 664.621 464.34 677.251 475.926Q678.284 476.862 679.27 477.848Q680.256 478.835 681.192 479.869Q682.127 480.903 683.01 481.982Q683.893 483.061 684.721 484.183Q685.549 485.305 686.32 486.467Q687.092 487.629 687.805 488.827Q688.517 490.026 689.169 491.258Q689.822 492.491 690.412 493.755Q691.002 495.018 691.528 496.309Q692.055 497.6 692.516 498.916Q692.978 500.232 693.374 501.569Q693.769 502.906 694.098 504.261Q694.427 505.617 694.688 506.987Q694.949 508.356 695.141 509.737Q695.333 511.119 695.457 512.508Q695.581 513.897 695.635 515.29C691.441 508.892 686.607 503.62 681.762 497.787C681.531 493.881 673.727 485.414 670.602 482.656C660.018 473.311 646.111 468.989 632.087 469.885C617.504 470.817 605.025 478.381 595.602 489.31C588.989 496.978 581.138 512.17 581.626 522.519C581.664 523.324 581.844 523.774 582.237 524.441C580.493 536.853 582.873 549.907 590.464 560.106Q592.084 562.255 593.945 564.199Q595.807 566.143 597.884 567.855Z"
     id="path92" />
  <path
     fill="#FEFEFE"
     transform="scale(0.117188 0.117188)"
     d="M405.858 416.705C409.848 416.165 414.356 416.337 418.372 416.697C431.342 417.861 442.288 422.931 450.64 433.069C462.334 447.262 463.104 464.511 461.469 482.018C449.235 470.434 434.924 460.111 419.819 452.678C412.23 448.73 404.359 445.354 396.076 443.157C376.17 437.877 356.291 436.438 338.035 447.133C355.687 429.162 381.17 419.307 405.858 416.705Z"
     id="path94" />
  <path
     fill="#FEFEFE"
     transform="scale(0.117188 0.117188)"
     d="M610.089 416.711C631.99 414.807 665.507 427.409 683.143 440.798C657.676 433.534 631.291 441.453 607.873 451.728C590.893 459.34 576.307 469.874 562.472 482.194C562.11 479.931 561.862 477.632 561.662 475.349C560.341 460.236 563.467 444.567 573.497 432.806C583.171 421.464 595.702 417.941 610.089 416.711Z"
     id="path96" />
  <path
     fill="#A81F07"
     transform="scale(0.117188 0.117188)"
     d="M326.943 508.549C334.105 489.204 347.123 474.331 365.984 465.758C381.773 458.581 402.035 455.648 418.586 461.875C433.837 467.612 444.728 479.151 451.284 493.891C458.966 511.16 459.815 531.849 452.426 549.409C450.068 555.012 443.066 560.921 437.509 562.923C436.624 563.242 435.503 563.65 434.586 563.227C434.412 563.146 434.256 563.031 434.091 562.933Q435.155 561.562 436.122 560.121Q437.09 558.681 437.958 557.178Q438.825 555.675 439.588 554.116Q440.351 552.558 441.006 550.951Q441.661 549.344 442.205 547.696Q442.749 546.048 443.18 544.367Q443.61 542.686 443.925 540.98Q444.24 539.273 444.438 537.549L444.84 534.093C444.682 525.565 443.757 518.955 441.015 510.876C440.502 509.3 439.918 507.781 439.176 506.298C434.108 496.164 424.538 486.964 413.649 483.419C407.283 481.347 398.054 480.745 391.928 483.814C382.125 487.725 374.786 495.53 370.624 505.179C365.092 518 365.777 534.594 371.001 547.403C375.543 558.54 381.641 565.448 391.494 572.132C383.743 571.107 374.948 562.444 369.851 557.034C360.021 551.738 349.547 532.1 346.457 521.614C344.053 513.456 342.988 504.767 342.956 496.274C337.641 500.305 331.977 504.188 326.943 508.549Z"
     id="path98" />
  <path
     transform="scale(0.117188 0.117188)"
     d="M341.528 496.943C346.386 488.767 355.831 481.756 364.059 477.231C377.688 469.738 394.432 465.988 409.624 470.514C422.879 474.463 433.45 483.154 439.976 495.327C446.415 507.337 449.383 521.856 445.313 535.103L444.84 534.093C444.682 525.565 443.757 518.955 441.015 510.876C440.502 509.3 439.918 507.781 439.176 506.298C434.108 496.164 424.538 486.964 413.649 483.419C407.283 481.347 398.054 480.745 391.928 483.814C382.125 487.725 374.786 495.53 370.624 505.179C365.092 518 365.777 534.594 371.001 547.403C375.543 558.54 381.641 565.448 391.494 572.132C383.743 571.107 374.948 562.444 369.851 557.034C368.517 554.211 366.704 551.54 365.267 548.745C360.795 540.047 357.866 530.562 357.47 520.747C356.928 507.324 361.16 496.625 370.199 486.817C359.04 487.608 351.399 492.297 341.528 496.943Z"
     id="path100" />
  <path
     transform="scale(0.117188 0.117188)"
     d="M391.928 483.814C398.054 480.745 407.283 481.347 413.649 483.419C424.538 486.964 434.108 496.164 439.176 506.298C439.918 507.781 440.502 509.3 441.015 510.876C443.757 518.955 444.682 525.565 444.84 534.093L444.438 537.549Q444.24 539.273 443.925 540.98Q443.61 542.686 443.18 544.367Q442.749 546.048 442.205 547.696Q441.661 549.344 441.006 550.951Q440.351 552.558 439.588 554.117Q438.825 555.675 437.958 557.178Q437.09 558.681 436.122 560.122Q435.155 561.562 434.091 562.933C427.635 569.554 418.734 575.871 409.193 576.037C402.771 576.148 397.388 574.522 391.494 572.132C381.641 565.448 375.543 558.54 371.001 547.403C365.777 534.594 365.092 518 370.624 505.179C374.786 495.53 382.125 487.725 391.928 483.814Z"
     id="path102" />
  <defs
     id="defs109">
    <linearGradient
       id="gradient_0"
       gradientUnits="userSpaceOnUse"
       x1="371.75638"
       y1="503.47632"
       x2="418.78101"
       y2="485.91364">
      <stop
         offset="0"
         stop-color="#555353"
         id="stop104" />
      <stop
         offset="1"
         stop-color="#717273"
         id="stop106" />
    </linearGradient>
  </defs>
  <path
     fill="url(#gradient_0)"
     transform="scale(0.117188 0.117188)"
     d="M391.928 483.814C398.054 480.745 407.283 481.347 413.649 483.419C424.538 486.964 434.108 496.164 439.176 506.298C439.918 507.781 440.502 509.3 441.015 510.876L440.377 511.709C438.286 506.666 436.081 502.034 432.562 497.814C427.197 491.38 419.784 486.714 411.269 486.122C400.181 485.35 395.591 489.568 387.816 496.201L386.936 496.349C381.047 501.476 378.133 510.525 375.067 517.497C374.916 514.689 374.806 511.79 375.122 508.993C376.574 496.15 382.809 491.88 392.207 484.303L391.928 483.814Z"
     id="path111" />
  <path
     fill="#FEFEFE"
     transform="scale(0.117188 0.117188)"
     d="M401.937 494.578C404.341 494.513 406.708 494.798 408.925 495.794C412.287 497.305 414.731 500.079 416.031 503.503C417.522 507.432 417.415 511.966 415.555 515.751C413.527 519.88 410.294 522.12 406.05 523.598C403.178 523.647 400.625 523.542 398.011 522.22Q397.322 521.875 396.673 521.459Q396.024 521.043 395.422 520.561Q394.82 520.079 394.273 519.537Q393.725 518.995 393.237 518.398Q392.75 517.801 392.328 517.156Q391.906 516.511 391.554 515.825Q391.202 515.139 390.924 514.42Q390.646 513.701 390.445 512.957Q390.242 512.242 390.11 511.51Q389.979 510.778 389.92 510.037Q389.862 509.296 389.877 508.553Q389.892 507.81 389.981 507.071Q390.07 506.333 390.231 505.608Q390.393 504.882 390.625 504.176Q390.858 503.47 391.159 502.79Q391.461 502.11 391.828 501.464C394.162 497.402 397.562 495.688 401.937 494.578Z"
     id="path113" />
  <path
     fill="#FEFEFE"
     transform="scale(0.117188 0.117188)"
     d="M391.928 483.814L392.207 484.303C382.809 491.88 376.574 496.15 375.122 508.993C374.806 511.79 374.916 514.689 375.067 517.497C378.133 510.525 381.047 501.476 386.936 496.349L387.816 496.201C380.645 507.273 378.835 519.663 381.642 532.535C384.244 544.467 390.502 556.091 400.987 562.807C406.797 566.53 413.332 568.171 420.175 566.595C427.606 564.883 433.184 559.533 436.981 553.147C443.456 542.257 444.72 527.533 441.505 515.384C441.18 514.155 440.838 512.891 440.377 511.709L441.015 510.876C443.757 518.955 444.682 525.565 444.84 534.093L444.438 537.549Q444.24 539.273 443.925 540.98Q443.61 542.686 443.18 544.367Q442.749 546.048 442.205 547.696Q441.661 549.344 441.006 550.951Q440.351 552.558 439.588 554.117Q438.825 555.675 437.958 557.178Q437.09 558.681 436.122 560.122Q435.155 561.562 434.091 562.933C427.635 569.554 418.734 575.871 409.193 576.037C402.771 576.148 397.388 574.522 391.494 572.132C381.641 565.448 375.543 558.54 371.001 547.403C365.777 534.594 365.092 518 370.624 505.179C374.786 495.53 382.125 487.725 391.928 483.814Z"
     id="path115" />
  <path
     transform="scale(0.117188 0.117188)"
     d="M582.237 524.441C581.844 523.774 581.664 523.324 581.626 522.519C581.138 512.17 588.989 496.978 595.602 489.31C605.025 478.381 617.504 470.817 632.087 469.885C646.111 468.989 660.018 473.311 670.602 482.656C673.727 485.414 681.531 493.881 681.762 497.787C680.595 496.815 679.353 495.909 678.152 494.979C677.797 500.38 677.943 505.764 677.372 511.159C675.802 525.996 669.902 541.415 658.629 551.577C657.87 552.261 657.171 552.626 656.245 553.03C651.039 559.841 637.522 571.977 628.505 572.892C627.696 572.974 627.709 572.95 627.019 572.898Q625.185 573.377 623.332 573.773C613.339 575.855 606.196 573.29 597.884 567.855Q595.807 566.143 593.945 564.199Q592.084 562.255 590.464 560.106C582.873 549.907 580.493 536.853 582.237 524.441Z"
     id="path117" />
  <path
     fill="#A81F07"
     transform="scale(0.117188 0.117188)"
     d="M662.158 486.334C668.44 488.223 673.115 490.825 678.152 494.979C677.797 500.38 677.943 505.764 677.372 511.159C675.802 525.996 669.902 541.415 658.629 551.577C657.87 552.261 657.171 552.626 656.245 553.03C660.802 545.609 664.959 538.49 667.492 530.089C672.165 514.596 669.62 500.366 662.158 486.334Z"
     id="path119" />
  <path
     fill="#FEFEFE"
     transform="scale(0.117188 0.117188)"
     d="M604.638 492.569C607.102 492.406 609.482 492.281 611.846 493.131C615.567 494.469 618.385 497.358 619.955 500.949C622.039 505.72 622.191 511.609 620.161 516.424C618.131 521.241 614.826 523.801 610.085 525.677C607.746 526.015 605.514 526.123 603.232 525.382C599.377 524.131 596.511 521.219 594.847 517.578Q594.645 517.131 594.467 516.673Q594.289 516.216 594.135 515.75Q593.98 515.284 593.85 514.811Q593.72 514.338 593.615 513.859Q593.509 513.38 593.429 512.895Q593.348 512.411 593.293 511.924Q593.237 511.436 593.207 510.946Q593.177 510.456 593.172 509.966Q593.167 509.475 593.188 508.985Q593.208 508.494 593.254 508.006Q593.3 507.517 593.371 507.032Q593.442 506.546 593.538 506.065Q593.634 505.583 593.755 505.108Q593.875 504.632 594.021 504.163Q594.166 503.695 594.335 503.234Q594.504 502.773 594.697 502.322C596.708 497.531 599.935 494.591 604.638 492.569Z"
     id="path121" />
  <path
     fill="#FEFEFE"
     transform="scale(0.117188 0.117188)"
     d="M588.953 507.031C586.186 521.856 585.908 536.754 594.767 549.753C599.916 557.308 607.862 563.101 616.993 564.591C624.776 565.86 632.402 563.644 638.641 558.95C647.394 552.363 653.523 540.419 654.962 529.694C656.57 517.708 654.399 503.709 646.887 493.91C644.699 491.057 636.166 483.552 632.382 483.33C632.242 483.322 632.101 483.353 631.961 483.365L631.6 482.967C638.302 483.714 645.018 489.043 649.082 494.162C657.167 504.345 659.692 518.247 658.115 530.928C656.43 544.478 649.438 558.192 638.487 566.541Q635.869 568.543 632.986 570.141Q630.104 571.739 627.019 572.898Q625.185 573.377 623.332 573.773C613.339 575.855 606.196 573.29 597.884 567.855Q595.807 566.143 593.945 564.199Q592.084 562.255 590.464 560.106C582.873 549.907 580.493 536.853 582.237 524.441C583.693 518.343 585.693 512.425 588.953 507.031Z"
     id="path123" />
</svg>
